{
	"patcher" : 	{
		"fileversion" : 1,
		"appversion" : 		{
			"major" : 8,
			"minor" : 0,
			"revision" : 3,
			"architecture" : "x64",
			"modernui" : 1
		}
,
		"classnamespace" : "box",
		"rect" : [ 210.0, 79.0, 1051.0, 621.0 ],
		"bglocked" : 0,
		"openinpresentation" : 0,
		"default_fontsize" : 12.0,
		"default_fontface" : 0,
		"default_fontname" : "Arial",
		"gridonopen" : 1,
		"gridsize" : [ 15.0, 15.0 ],
		"gridsnaponopen" : 1,
		"objectsnaponopen" : 1,
		"statusbarvisible" : 2,
		"toolbarvisible" : 1,
		"lefttoolbarpinned" : 0,
		"toptoolbarpinned" : 0,
		"righttoolbarpinned" : 0,
		"bottomtoolbarpinned" : 0,
		"toolbars_unpinned_last_save" : 0,
		"tallnewobj" : 0,
		"boxanimatetime" : 200,
		"enablehscroll" : 1,
		"enablevscroll" : 1,
		"devicewidth" : 0.0,
		"description" : "",
		"digest" : "",
		"tags" : "",
		"style" : "",
		"subpatcher_template" : "",
		"boxes" : [ 			{
				"box" : 				{
					"id" : "obj-5",
					"maxclass" : "newobj",
					"numinlets" : 1,
					"numoutlets" : 1,
					"outlettype" : [ "bang" ],
					"patching_rect" : [ 324.0, 60.0, 58.0, 22.0 ],
					"text" : "loadbang"
				}

			}
, 			{
				"box" : 				{
					"id" : "obj-25",
					"maxclass" : "newobj",
					"numinlets" : 1,
					"numoutlets" : 1,
					"outlettype" : [ "bang" ],
					"patching_rect" : [ 681.0, 60.0, 58.0, 22.0 ],
					"text" : "loadbang"
				}

			}
, 			{
				"box" : 				{
					"id" : "obj-24",
					"linecount" : 2,
					"maxclass" : "comment",
					"numinlets" : 1,
					"numoutlets" : 0,
					"patching_rect" : [ 151.0, 325.5, 54.0, 33.0 ],
					"text" : "close camera"
				}

			}
, 			{
				"box" : 				{
					"id" : "obj-21",
					"maxclass" : "newobj",
					"numinlets" : 1,
					"numoutlets" : 1,
					"outlettype" : [ "bang" ],
					"patching_rect" : [ 68.0, 287.0, 58.0, 22.0 ],
					"text" : "loadbang"
				}

			}
, 			{
				"box" : 				{
					"id" : "obj-18",
					"maxclass" : "button",
					"numinlets" : 1,
					"numoutlets" : 1,
					"outlettype" : [ "bang" ],
					"parameter_enable" : 0,
					"patching_rect" : [ 121.0, 330.0, 24.0, 24.0 ]
				}

			}
, 			{
				"box" : 				{
					"id" : "obj-12",
					"maxclass" : "button",
					"numinlets" : 1,
					"numoutlets" : 1,
					"outlettype" : [ "bang" ],
					"parameter_enable" : 0,
					"patching_rect" : [ 73.0, 328.0, 24.0, 24.0 ]
				}

			}
, 			{
				"box" : 				{
					"id" : "obj-80",
					"maxclass" : "newobj",
					"numinlets" : 2,
					"numoutlets" : 1,
					"outlettype" : [ "" ],
					"patcher" : 					{
						"fileversion" : 1,
						"appversion" : 						{
							"major" : 8,
							"minor" : 0,
							"revision" : 3,
							"architecture" : "x64",
							"modernui" : 1
						}
,
						"classnamespace" : "box",
						"rect" : [ 323.0, 79.0, 840.0, 587.0 ],
						"bglocked" : 0,
						"openinpresentation" : 0,
						"default_fontsize" : 12.0,
						"default_fontface" : 0,
						"default_fontname" : "Arial",
						"gridonopen" : 1,
						"gridsize" : [ 15.0, 15.0 ],
						"gridsnaponopen" : 1,
						"objectsnaponopen" : 1,
						"statusbarvisible" : 2,
						"toolbarvisible" : 1,
						"lefttoolbarpinned" : 0,
						"toptoolbarpinned" : 0,
						"righttoolbarpinned" : 0,
						"bottomtoolbarpinned" : 0,
						"toolbars_unpinned_last_save" : 0,
						"tallnewobj" : 0,
						"boxanimatetime" : 200,
						"enablehscroll" : 1,
						"enablevscroll" : 1,
						"devicewidth" : 0.0,
						"description" : "",
						"digest" : "",
						"tags" : "",
						"style" : "",
						"subpatcher_template" : "",
						"boxes" : [ 							{
								"box" : 								{
									"id" : "obj-10",
									"maxclass" : "button",
									"numinlets" : 1,
									"numoutlets" : 1,
									"outlettype" : [ "bang" ],
									"parameter_enable" : 0,
									"patching_rect" : [ 359.0, 480.0, 24.0, 24.0 ]
								}

							}
, 							{
								"box" : 								{
									"id" : "obj-8",
									"maxclass" : "newobj",
									"numinlets" : 1,
									"numoutlets" : 1,
									"outlettype" : [ "" ],
									"patching_rect" : [ 294.0, 438.0, 129.0, 22.0 ],
									"text" : "if $f1 >= 0.5 then bang"
								}

							}
, 							{
								"box" : 								{
									"id" : "obj-2",
									"maxclass" : "newobj",
									"numinlets" : 1,
									"numoutlets" : 0,
									"patcher" : 									{
										"fileversion" : 1,
										"appversion" : 										{
											"major" : 8,
											"minor" : 0,
											"revision" : 3,
											"architecture" : "x64",
											"modernui" : 1
										}
,
										"classnamespace" : "box",
										"rect" : [ 612.0, 111.0, 640.0, 480.0 ],
										"bglocked" : 0,
										"openinpresentation" : 0,
										"default_fontsize" : 12.0,
										"default_fontface" : 0,
										"default_fontname" : "Arial",
										"gridonopen" : 1,
										"gridsize" : [ 15.0, 15.0 ],
										"gridsnaponopen" : 1,
										"objectsnaponopen" : 1,
										"statusbarvisible" : 2,
										"toolbarvisible" : 1,
										"lefttoolbarpinned" : 0,
										"toptoolbarpinned" : 0,
										"righttoolbarpinned" : 0,
										"bottomtoolbarpinned" : 0,
										"toolbars_unpinned_last_save" : 0,
										"tallnewobj" : 0,
										"boxanimatetime" : 200,
										"enablehscroll" : 1,
										"enablevscroll" : 1,
										"devicewidth" : 0.0,
										"description" : "",
										"digest" : "",
										"tags" : "",
										"style" : "",
										"subpatcher_template" : "",
										"visible" : 1,
										"boxes" : [ 											{
												"box" : 												{
													"fontname" : "Trebuchet MS",
													"fontsize" : 14.0,
													"id" : "obj-47",
													"maxclass" : "newobj",
													"numinlets" : 1,
													"numoutlets" : 1,
													"outlettype" : [ "" ],
													"patcher" : 													{
														"fileversion" : 1,
														"appversion" : 														{
															"major" : 8,
															"minor" : 0,
															"revision" : 3,
															"architecture" : "x64",
															"modernui" : 1
														}
,
														"classnamespace" : "box",
														"rect" : [ 553.0, 79.0, 500.0, 413.0 ],
														"bglocked" : 0,
														"openinpresentation" : 0,
														"default_fontsize" : 12.0,
														"default_fontface" : 0,
														"default_fontname" : "Arial",
														"gridonopen" : 1,
														"gridsize" : [ 15.0, 15.0 ],
														"gridsnaponopen" : 1,
														"objectsnaponopen" : 1,
														"statusbarvisible" : 2,
														"toolbarvisible" : 1,
														"lefttoolbarpinned" : 0,
														"toptoolbarpinned" : 0,
														"righttoolbarpinned" : 0,
														"bottomtoolbarpinned" : 0,
														"toolbars_unpinned_last_save" : 0,
														"tallnewobj" : 0,
														"boxanimatetime" : 200,
														"enablehscroll" : 1,
														"enablevscroll" : 1,
														"devicewidth" : 0.0,
														"description" : "",
														"digest" : "",
														"tags" : "",
														"style" : "",
														"subpatcher_template" : "",
														"boxes" : [ 															{
																"box" : 																{
																	"comment" : "",
																	"id" : "obj-5",
																	"index" : 1,
																	"maxclass" : "inlet",
																	"numinlets" : 0,
																	"numoutlets" : 1,
																	"outlettype" : [ "bang" ],
																	"patching_rect" : [ 372.0, 37.20513916015625, 30.0, 30.0 ]
																}

															}
, 															{
																"box" : 																{
																	"fontname" : "Arial",
																	"fontsize" : 12.0,
																	"id" : "obj-1",
																	"maxclass" : "newobj",
																	"numinlets" : 2,
																	"numoutlets" : 1,
																	"outlettype" : [ "bang" ],
																	"patching_rect" : [ 50.0, 214.0, 48.0, 22.0 ],
																	"text" : "qmetro"
																}

															}
, 															{
																"box" : 																{
																	"fontname" : "Trebuchet MS",
																	"fontsize" : 11.0,
																	"id" : "obj-6",
																	"maxclass" : "comment",
																	"numinlets" : 1,
																	"numoutlets" : 0,
																	"patching_rect" : [ 69.198822000000007, 102.404266000000007, 148.0, 19.0 ],
																	"text" : "set the pin mode first! >>>>",
																	"textcolor" : [ 1.0, 0.0, 0.0, 1.0 ]
																}

															}
, 															{
																"box" : 																{
																	"fontname" : "Trebuchet MS",
																	"fontsize" : 10.0,
																	"id" : "obj-4",
																	"maxclass" : "newobj",
																	"numinlets" : 3,
																	"numoutlets" : 1,
																	"outlettype" : [ "" ],
																	"patching_rect" : [ 380.0, 250.42004399999999, 83.0, 20.0 ],
																	"text" : "pak pinMode 1 1"
																}

															}
, 															{
																"box" : 																{
																	"comment" : "",
																	"id" : "obj-3",
																	"index" : 1,
																	"maxclass" : "outlet",
																	"numinlets" : 1,
																	"numoutlets" : 0,
																	"patching_rect" : [ 252.784119000000004, 356.613524999999981, 25.0, 25.0 ]
																}

															}
, 															{
																"box" : 																{
																	"id" : "obj-2",
																	"maxclass" : "button",
																	"numinlets" : 1,
																	"numoutlets" : 1,
																	"outlettype" : [ "bang" ],
																	"parameter_enable" : 0,
																	"patching_rect" : [ 181.198822000000007, 192.61352500000001, 20.0, 20.0 ]
																}

															}
, 															{
																"box" : 																{
																	"fontname" : "Trebuchet MS",
																	"fontsize" : 10.0,
																	"id" : "obj-93",
																	"maxclass" : "message",
																	"numinlets" : 2,
																	"numoutlets" : 1,
																	"outlettype" : [ "" ],
																	"patching_rect" : [ 134.198822021484375, 316.3753662109375, 114.272720336914062, 20.0 ],
																	"text" : "digitalWrite 4 0"
																}

															}
, 															{
																"box" : 																{
																	"fontname" : "Trebuchet MS",
																	"fontsize" : 11.0,
																	"id" : "obj-98",
																	"maxclass" : "comment",
																	"numinlets" : 1,
																	"numoutlets" : 0,
																	"patching_rect" : [ 17.198822, 37.205139000000003, 298.0, 19.0 ],
																	"text" : "use pin mode 1 allows you set output pins to HIGH or LOW",
																	"textcolor" : [ 1.0, 0.0, 0.0, 1.0 ]
																}

															}
, 															{
																"box" : 																{
																	"fontname" : "Trebuchet MS",
																	"fontsize" : 10.0,
																	"id" : "obj-103",
																	"maxclass" : "comment",
																	"numinlets" : 1,
																	"numoutlets" : 0,
																	"patching_rect" : [ 17.198822, 82.841492000000002, 193.0, 18.0 ],
																	"text" : "format: digitalWrite pin# value(0 or 1)"
																}

															}
, 															{
																"box" : 																{
																	"fontname" : "Trebuchet MS",
																	"fontsize" : 10.0,
																	"id" : "obj-104",
																	"maxclass" : "comment",
																	"numinlets" : 1,
																	"numoutlets" : 0,
																	"patching_rect" : [ 17.198822, 64.841492000000002, 114.0, 18.0 ],
																	"text" : "message: \"digitalWrite\""
																}

															}
, 															{
																"box" : 																{
																	"fontname" : "Trebuchet MS Bold",
																	"fontsize" : 14.0,
																	"id" : "obj-105",
																	"maxclass" : "comment",
																	"numinlets" : 1,
																	"numoutlets" : 0,
																	"patching_rect" : [ 17.198822, 9.205139000000001, 102.0, 23.0 ],
																	"text" : "Digital Output"
																}

															}
, 															{
																"box" : 																{
																	"fontname" : "Trebuchet MS",
																	"fontsize" : 10.0,
																	"id" : "obj-106",
																	"maxclass" : "comment",
																	"numinlets" : 1,
																	"numoutlets" : 0,
																	"patching_rect" : [ 289.248413000000028, 82.841492000000002, 102.0, 18.0 ],
																	"text" : "turn that pin on/off"
																}

															}
, 															{
																"box" : 																{
																	"fontname" : "Trebuchet MS",
																	"fontsize" : 10.0,
																	"id" : "obj-107",
																	"maxclass" : "comment",
																	"numinlets" : 1,
																	"numoutlets" : 0,
																	"patching_rect" : [ 223.238585999999998, 82.841492000000002, 62.0, 18.0 ],
																	"text" : "select pin #"
																}

															}
, 															{
																"box" : 																{
																	"fontname" : "Trebuchet MS",
																	"fontsize" : 10.0,
																	"id" : "obj-114",
																	"maxclass" : "newobj",
																	"numinlets" : 3,
																	"numoutlets" : 1,
																	"outlettype" : [ "" ],
																	"patching_rect" : [ 252.784119000000004, 250.42004399999999, 104.0, 20.0 ],
																	"text" : "pack digitalWrite 1 1"
																}

															}
, 															{
																"box" : 																{
																	"id" : "obj-119",
																	"maxclass" : "toggle",
																	"numinlets" : 1,
																	"numoutlets" : 1,
																	"outlettype" : [ "int" ],
																	"parameter_enable" : 0,
																	"patching_rect" : [ 338.198822000000007, 102.404266000000007, 20.0, 20.0 ]
																}

															}
, 															{
																"box" : 																{
																	"fontname" : "Trebuchet MS",
																	"fontsize" : 10.0,
																	"id" : "obj-121",
																	"maxclass" : "number",
																	"numinlets" : 1,
																	"numoutlets" : 2,
																	"outlettype" : [ "", "bang" ],
																	"parameter_enable" : 0,
																	"patching_rect" : [ 223.238585999999998, 102.404266000000007, 49.0, 20.0 ]
																}

															}
 ],
														"lines" : [ 															{
																"patchline" : 																{
																	"destination" : [ "obj-3", 0 ],
																	"order" : 0,
																	"source" : [ "obj-114", 0 ]
																}

															}
, 															{
																"patchline" : 																{
																	"destination" : [ "obj-93", 1 ],
																	"order" : 1,
																	"source" : [ "obj-114", 0 ]
																}

															}
, 															{
																"patchline" : 																{
																	"destination" : [ "obj-114", 2 ],
																	"order" : 0,
																	"source" : [ "obj-119", 0 ]
																}

															}
, 															{
																"patchline" : 																{
																	"destination" : [ "obj-2", 0 ],
																	"order" : 1,
																	"source" : [ "obj-119", 0 ]
																}

															}
, 															{
																"patchline" : 																{
																	"destination" : [ "obj-114", 1 ],
																	"order" : 1,
																	"source" : [ "obj-121", 0 ]
																}

															}
, 															{
																"patchline" : 																{
																	"destination" : [ "obj-4", 1 ],
																	"order" : 0,
																	"source" : [ "obj-121", 0 ]
																}

															}
, 															{
																"patchline" : 																{
																	"destination" : [ "obj-114", 0 ],
																	"source" : [ "obj-2", 0 ]
																}

															}
, 															{
																"patchline" : 																{
																	"destination" : [ "obj-3", 0 ],
																	"source" : [ "obj-4", 0 ]
																}

															}
, 															{
																"patchline" : 																{
																	"destination" : [ "obj-119", 0 ],
																	"source" : [ "obj-5", 0 ]
																}

															}
 ]
													}
,
													"patching_rect" : [ 408.0, 195.5, 120.0, 25.0 ],
													"saved_object_attributes" : 													{
														"description" : "",
														"digest" : "",
														"globalpatchername" : "",
														"tags" : ""
													}
,
													"text" : "p digital OUTPUT"
												}

											}
, 											{
												"box" : 												{
													"fontname" : "Trebuchet MS",
													"fontsize" : 14.0,
													"id" : "obj-116",
													"maxclass" : "newobj",
													"numinlets" : 0,
													"numoutlets" : 1,
													"outlettype" : [ "" ],
													"patcher" : 													{
														"fileversion" : 1,
														"appversion" : 														{
															"major" : 8,
															"minor" : 0,
															"revision" : 3,
															"architecture" : "x64",
															"modernui" : 1
														}
,
														"classnamespace" : "box",
														"rect" : [ 527.0, 79.0, 413.0, 443.0 ],
														"bglocked" : 0,
														"openinpresentation" : 0,
														"default_fontsize" : 12.0,
														"default_fontface" : 0,
														"default_fontname" : "Arial",
														"gridonopen" : 1,
														"gridsize" : [ 15.0, 15.0 ],
														"gridsnaponopen" : 1,
														"objectsnaponopen" : 1,
														"statusbarvisible" : 2,
														"toolbarvisible" : 1,
														"lefttoolbarpinned" : 0,
														"toptoolbarpinned" : 0,
														"righttoolbarpinned" : 0,
														"bottomtoolbarpinned" : 0,
														"toolbars_unpinned_last_save" : 0,
														"tallnewobj" : 0,
														"boxanimatetime" : 200,
														"enablehscroll" : 1,
														"enablevscroll" : 1,
														"devicewidth" : 0.0,
														"description" : "",
														"digest" : "",
														"tags" : "",
														"style" : "",
														"subpatcher_template" : "",
														"boxes" : [ 															{
																"box" : 																{
																	"fontname" : "Trebuchet MS",
																	"fontsize" : 10.0,
																	"id" : "obj-7",
																	"maxclass" : "comment",
																	"numinlets" : 1,
																	"numoutlets" : 0,
																	"patching_rect" : [ 227.0, 266.0, 129.0, 18.0 ],
																	"text" : "<<open that patch for me!"
																}

															}
, 															{
																"box" : 																{
																	"id" : "obj-6",
																	"maxclass" : "button",
																	"numinlets" : 1,
																	"numoutlets" : 1,
																	"outlettype" : [ "bang" ],
																	"parameter_enable" : 0,
																	"patching_rect" : [ 207.0, 264.0, 20.0, 20.0 ]
																}

															}
, 															{
																"box" : 																{
																	"fontname" : "Arial",
																	"fontsize" : 12.0,
																	"id" : "obj-16",
																	"maxclass" : "newobj",
																	"numinlets" : 1,
																	"numoutlets" : 0,
																	"patching_rect" : [ 207.0, 312.0, 139.0, 22.0 ],
																	"text" : "s maxuino-sensor-patch"
																}

															}
, 															{
																"box" : 																{
																	"fontname" : "Trebuchet MS",
																	"fontsize" : 11.0,
																	"id" : "obj-5",
																	"maxclass" : "comment",
																	"numinlets" : 1,
																	"numoutlets" : 0,
																	"patching_rect" : [ 155.238585999999998, 174.227966000000009, 126.0, 19.0 ],
																	"text" : "-set the pin mode first!",
																	"textcolor" : [ 1.0, 0.0, 0.0, 1.0 ]
																}

															}
, 															{
																"box" : 																{
																	"fontname" : "Trebuchet MS",
																	"fontsize" : 10.0,
																	"id" : "obj-2",
																	"linecount" : 5,
																	"maxclass" : "comment",
																	"numinlets" : 1,
																	"numoutlets" : 0,
																	"patching_rect" : [ 155.238585999999998, 193.227966000000009, 133.0, 65.0 ],
																	"text" : "-then look for sensor readings coming out of the maxuino object in the subpatch called \"sensor-values\""
																}

															}
, 															{
																"box" : 																{
																	"fontname" : "Trebuchet MS",
																	"fontsize" : 10.0,
																	"id" : "obj-4",
																	"maxclass" : "newobj",
																	"numinlets" : 3,
																	"numoutlets" : 1,
																	"outlettype" : [ "" ],
																	"patching_rect" : [ 77.784119000000004, 286.80651899999998, 83.0, 20.0 ],
																	"text" : "pak pinMode 1 0"
																}

															}
, 															{
																"box" : 																{
																	"comment" : "",
																	"id" : "obj-3",
																	"index" : 1,
																	"maxclass" : "outlet",
																	"numinlets" : 1,
																	"numoutlets" : 0,
																	"patching_rect" : [ 77.784119000000004, 394.0, 25.0, 25.0 ]
																}

															}
, 															{
																"box" : 																{
																	"fontname" : "Trebuchet MS",
																	"fontsize" : 11.0,
																	"id" : "obj-98",
																	"maxclass" : "comment",
																	"numinlets" : 1,
																	"numoutlets" : 0,
																	"patching_rect" : [ 17.198822, 37.205139000000003, 363.0, 19.0 ],
																	"text" : "use pin mode 0 to use a pin as a digital input, good for a button/switch",
																	"textcolor" : [ 1.0, 0.0, 0.0, 1.0 ]
																}

															}
, 															{
																"box" : 																{
																	"fontname" : "Trebuchet MS Bold",
																	"fontsize" : 14.0,
																	"id" : "obj-105",
																	"maxclass" : "comment",
																	"numinlets" : 1,
																	"numoutlets" : 0,
																	"patching_rect" : [ 17.198822, 9.205139000000001, 102.0, 23.0 ],
																	"text" : "Digital Input"
																}

															}
, 															{
																"box" : 																{
																	"fontname" : "Trebuchet MS",
																	"fontsize" : 10.0,
																	"id" : "obj-107",
																	"maxclass" : "comment",
																	"numinlets" : 1,
																	"numoutlets" : 0,
																	"patching_rect" : [ 109.784119000000004, 120.227965999999995, 62.0, 18.0 ],
																	"text" : "select pin #"
																}

															}
, 															{
																"box" : 																{
																	"fontname" : "Trebuchet MS",
																	"fontsize" : 10.0,
																	"id" : "obj-121",
																	"maxclass" : "number",
																	"numinlets" : 1,
																	"numoutlets" : 2,
																	"outlettype" : [ "", "bang" ],
																	"parameter_enable" : 0,
																	"patching_rect" : [ 109.784119000000004, 139.790740999999997, 49.0, 20.0 ]
																}

															}
 ],
														"lines" : [ 															{
																"patchline" : 																{
																	"destination" : [ "obj-4", 1 ],
																	"source" : [ "obj-121", 0 ]
																}

															}
, 															{
																"patchline" : 																{
																	"destination" : [ "obj-3", 0 ],
																	"source" : [ "obj-4", 0 ]
																}

															}
, 															{
																"patchline" : 																{
																	"destination" : [ "obj-16", 0 ],
																	"source" : [ "obj-6", 0 ]
																}

															}
 ]
													}
,
													"patching_rect" : [ 402.0, 128.0692138671875, 104.0, 25.0 ],
													"saved_object_attributes" : 													{
														"description" : "",
														"digest" : "",
														"globalpatchername" : "",
														"tags" : ""
													}
,
													"text" : "p digital INPUT"
												}

											}
, 											{
												"box" : 												{
													"color" : [ 0.4, 1.0, 1.0, 1.0 ],
													"fontname" : "Trebuchet MS",
													"fontsize" : 14.0,
													"id" : "obj-114",
													"maxclass" : "newobj",
													"numinlets" : 0,
													"numoutlets" : 1,
													"outlettype" : [ "" ],
													"patcher" : 													{
														"fileversion" : 1,
														"appversion" : 														{
															"major" : 8,
															"minor" : 0,
															"revision" : 3,
															"architecture" : "x64",
															"modernui" : 1
														}
,
														"classnamespace" : "box",
														"rect" : [ 782.0, 79.0, 464.0, 442.0 ],
														"bglocked" : 0,
														"openinpresentation" : 0,
														"default_fontsize" : 12.0,
														"default_fontface" : 0,
														"default_fontname" : "Arial",
														"gridonopen" : 1,
														"gridsize" : [ 15.0, 15.0 ],
														"gridsnaponopen" : 1,
														"objectsnaponopen" : 1,
														"statusbarvisible" : 2,
														"toolbarvisible" : 1,
														"lefttoolbarpinned" : 0,
														"toptoolbarpinned" : 0,
														"righttoolbarpinned" : 0,
														"bottomtoolbarpinned" : 0,
														"toolbars_unpinned_last_save" : 0,
														"tallnewobj" : 0,
														"boxanimatetime" : 200,
														"enablehscroll" : 1,
														"enablevscroll" : 1,
														"devicewidth" : 0.0,
														"description" : "",
														"digest" : "",
														"tags" : "",
														"style" : "",
														"subpatcher_template" : "",
														"boxes" : [ 															{
																"box" : 																{
																	"fontname" : "Trebuchet MS",
																	"fontsize" : 11.0,
																	"id" : "obj-98",
																	"maxclass" : "comment",
																	"numinlets" : 1,
																	"numoutlets" : 0,
																	"patching_rect" : [ 15.198822, 38.205139000000003, 298.0, 19.0 ],
																	"text" : "use this message to change pin modes in your arduino",
																	"textcolor" : [ 1.0, 0.0, 0.0, 1.0 ]
																}

															}
, 															{
																"box" : 																{
																	"fontname" : "Trebuchet MS",
																	"fontsize" : 10.0,
																	"id" : "obj-103",
																	"maxclass" : "comment",
																	"numinlets" : 1,
																	"numoutlets" : 0,
																	"patching_rect" : [ 15.198822, 83.841492000000002, 169.0, 18.0 ],
																	"text" : "format: pinMode pin# value"
																}

															}
, 															{
																"box" : 																{
																	"fontname" : "Trebuchet MS",
																	"fontsize" : 10.0,
																	"id" : "obj-104",
																	"maxclass" : "comment",
																	"numinlets" : 1,
																	"numoutlets" : 0,
																	"patching_rect" : [ 15.198822, 65.841492000000002, 114.0, 18.0 ],
																	"text" : "message: \"pinMode\""
																}

															}
, 															{
																"box" : 																{
																	"fontname" : "Trebuchet MS Bold",
																	"fontsize" : 14.0,
																	"id" : "obj-105",
																	"maxclass" : "comment",
																	"numinlets" : 1,
																	"numoutlets" : 0,
																	"patching_rect" : [ 15.198822, 10.205139000000001, 102.0, 23.0 ],
																	"text" : "Pin Modes"
																}

															}
, 															{
																"box" : 																{
																	"fontname" : "Trebuchet MS",
																	"fontsize" : 10.0,
																	"id" : "obj-7",
																	"linecount" : 5,
																	"maxclass" : "comment",
																	"numinlets" : 1,
																	"numoutlets" : 0,
																	"patching_rect" : [ 269.238585999999998, 190.0, 109.0, 76.0 ],
																	"text" : "0 - digital input;\n1 - digital output;\n2 - analog input;\n3 - pwm/ analog out;\n4 - servo;\n"
																}

															}
, 															{
																"box" : 																{
																	"fontname" : "Trebuchet MS",
																	"fontsize" : 10.0,
																	"id" : "obj-6",
																	"maxclass" : "comment",
																	"numinlets" : 1,
																	"numoutlets" : 0,
																	"patching_rect" : [ 269.238585999999998, 172.0, 80.0, 18.0 ],
																	"text" : "mode numbers:"
																}

															}
, 															{
																"box" : 																{
																	"fontname" : "Trebuchet MS",
																	"fontsize" : 10.0,
																	"id" : "obj-5",
																	"maxclass" : "number",
																	"numinlets" : 1,
																	"numoutlets" : 2,
																	"outlettype" : [ "", "bang" ],
																	"parameter_enable" : 0,
																	"patching_rect" : [ 214.238585999999998, 190.0, 49.0, 20.0 ]
																}

															}
, 															{
																"box" : 																{
																	"allowdrag" : 0,
																	"arrow" : 0,
																	"fontname" : "Trebuchet MS",
																	"fontsize" : 12.0,
																	"id" : "obj-1",
																	"items" : [ "in", ",", "out", ",", "inA", ",", "pwm", ",", "serv", ",", "stepStep", ",", "dirSte" ],
																	"maxclass" : "umenu",
																	"numinlets" : 1,
																	"numoutlets" : 3,
																	"outlettype" : [ "int", "", "" ],
																	"parameter_enable" : 0,
																	"patching_rect" : [ 164.0, 142.0, 33.0, 22.0 ],
																	"varname" : "mode[1]"
																}

															}
, 															{
																"box" : 																{
																	"fontname" : "Trebuchet MS",
																	"fontsize" : 10.0,
																	"id" : "obj-107",
																	"maxclass" : "comment",
																	"numinlets" : 1,
																	"numoutlets" : 0,
																	"patching_rect" : [ 93.238585999999998, 122.437224999999998, 62.0, 18.0 ],
																	"text" : "select pin #"
																}

															}
, 															{
																"box" : 																{
																	"fontname" : "Trebuchet MS",
																	"fontsize" : 10.0,
																	"id" : "obj-121",
																	"maxclass" : "number",
																	"numinlets" : 1,
																	"numoutlets" : 2,
																	"outlettype" : [ "", "bang" ],
																	"parameter_enable" : 0,
																	"patching_rect" : [ 93.238585999999998, 142.0, 49.0, 20.0 ]
																}

															}
, 															{
																"box" : 																{
																	"fontname" : "Trebuchet MS",
																	"fontsize" : 10.0,
																	"id" : "obj-4",
																	"maxclass" : "newobj",
																	"numinlets" : 3,
																	"numoutlets" : 1,
																	"outlettype" : [ "" ],
																	"patching_rect" : [ 100.0, 232.267944, 83.0, 20.0 ],
																	"text" : "pak pinMode 1 2"
																}

															}
, 															{
																"box" : 																{
																	"comment" : "",
																	"id" : "obj-113",
																	"index" : 1,
																	"maxclass" : "outlet",
																	"numinlets" : 1,
																	"numoutlets" : 0,
																	"patching_rect" : [ 100.0, 322.267944, 25.0, 25.0 ]
																}

															}
 ],
														"lines" : [ 															{
																"patchline" : 																{
																	"destination" : [ "obj-4", 2 ],
																	"order" : 1,
																	"source" : [ "obj-1", 0 ]
																}

															}
, 															{
																"patchline" : 																{
																	"destination" : [ "obj-5", 0 ],
																	"order" : 0,
																	"source" : [ "obj-1", 0 ]
																}

															}
, 															{
																"patchline" : 																{
																	"destination" : [ "obj-4", 1 ],
																	"source" : [ "obj-121", 0 ]
																}

															}
, 															{
																"patchline" : 																{
																	"destination" : [ "obj-113", 0 ],
																	"source" : [ "obj-4", 0 ]
																}

															}
 ]
													}
,
													"patching_rect" : [ 371.0, 87.0, 110.0, 25.0 ],
													"saved_object_attributes" : 													{
														"description" : "",
														"digest" : "",
														"globalpatchername" : "",
														"tags" : ""
													}
,
													"text" : "p set pin modes"
												}

											}
, 											{
												"box" : 												{
													"fontname" : "Trebuchet MS",
													"fontsize" : 12.0,
													"id" : "obj-31",
													"maxclass" : "message",
													"numinlets" : 2,
													"numoutlets" : 1,
													"outlettype" : [ "" ],
													"patching_rect" : [ 221.5, 212.66204833984375, 32.5, 22.0 ],
													"presentation" : 1,
													"presentation_rect" : [ 882.589111328125, 556.3167724609375, 48.0, 22.0 ],
													"text" : "gui"
												}

											}
, 											{
												"box" : 												{
													"fontname" : "Trebuchet MS",
													"fontsize" : 12.0,
													"id" : "obj-9",
													"maxclass" : "message",
													"numinlets" : 2,
													"numoutlets" : 1,
													"outlettype" : [ "" ],
													"patching_rect" : [ 208.25, 143.499923706054688, 32.5, 22.0 ],
													"presentation" : 1,
													"presentation_rect" : [ 112.0989990234375, 400.66326904296875, 48.0, 22.0 ],
													"text" : "init"
												}

											}
, 											{
												"box" : 												{
													"fontname" : "Trebuchet MS",
													"fontsize" : 12.0,
													"id" : "obj-61",
													"maxclass" : "newobj",
													"numinlets" : 1,
													"numoutlets" : 1,
													"outlettype" : [ "bang" ],
													"patching_rect" : [ 49.4639892578125, 98.051513671875, 59.0, 22.0 ],
													"text" : "loadbang"
												}

											}
, 											{
												"box" : 												{
													"fontname" : "Trebuchet MS",
													"fontsize" : 12.0,
													"id" : "obj-62",
													"maxclass" : "newobj",
													"numinlets" : 1,
													"numoutlets" : 1,
													"outlettype" : [ "" ],
													"patching_rect" : [ 107.4639892578125, 224.5408935546875, 81.0, 22.0 ],
													"text" : "prepend port"
												}

											}
, 											{
												"box" : 												{
													"fontname" : "Trebuchet MS",
													"fontsize" : 12.0,
													"id" : "obj-77",
													"maxclass" : "newobj",
													"numinlets" : 1,
													"numoutlets" : 1,
													"outlettype" : [ "" ],
													"patcher" : 													{
														"fileversion" : 1,
														"appversion" : 														{
															"major" : 8,
															"minor" : 0,
															"revision" : 3,
															"architecture" : "x64",
															"modernui" : 1
														}
,
														"classnamespace" : "box",
														"rect" : [ 10.0, 59.0, 667.0, 547.0 ],
														"bglocked" : 0,
														"openinpresentation" : 0,
														"default_fontsize" : 12.0,
														"default_fontface" : 0,
														"default_fontname" : "Arial",
														"gridonopen" : 1,
														"gridsize" : [ 15.0, 15.0 ],
														"gridsnaponopen" : 1,
														"objectsnaponopen" : 1,
														"statusbarvisible" : 2,
														"toolbarvisible" : 1,
														"lefttoolbarpinned" : 0,
														"toptoolbarpinned" : 0,
														"righttoolbarpinned" : 0,
														"bottomtoolbarpinned" : 0,
														"toolbars_unpinned_last_save" : 0,
														"tallnewobj" : 0,
														"boxanimatetime" : 200,
														"enablehscroll" : 1,
														"enablevscroll" : 1,
														"devicewidth" : 0.0,
														"description" : "",
														"digest" : "",
														"tags" : "",
														"style" : "",
														"subpatcher_template" : "",
														"boxes" : [ 															{
																"box" : 																{
																	"fontname" : "Arial",
																	"fontsize" : 12.0,
																	"id" : "obj-10",
																	"maxclass" : "message",
																	"numinlets" : 2,
																	"numoutlets" : 1,
																	"outlettype" : [ "" ],
																	"patching_rect" : [ 148.0, 212.0, 52.0, 18.0 ],
																	"text" : "select..."
																}

															}
, 															{
																"box" : 																{
																	"fontname" : "Arial",
																	"fontsize" : 12.0,
																	"id" : "obj-8",
																	"maxclass" : "newobj",
																	"numinlets" : 1,
																	"numoutlets" : 3,
																	"outlettype" : [ "print", "bang", "clear" ],
																	"patching_rect" : [ 51.0, 76.0, 80.0, 20.0 ],
																	"text" : "t print b clear"
																}

															}
, 															{
																"box" : 																{
																	"fontname" : "Arial",
																	"fontsize" : 10.0,
																	"id" : "obj-1",
																	"maxclass" : "newobj",
																	"numinlets" : 2,
																	"numoutlets" : 2,
																	"outlettype" : [ "", "" ],
																	"patching_rect" : [ 90.0, 171.0, 56.0, 18.0 ],
																	"text" : "route port"
																}

															}
, 															{
																"box" : 																{
																	"fontname" : "Arial",
																	"fontsize" : 10.0,
																	"id" : "obj-3",
																	"maxclass" : "newobj",
																	"numinlets" : 1,
																	"numoutlets" : 1,
																	"outlettype" : [ "" ],
																	"patching_rect" : [ 90.0, 358.0, 111.0, 18.0 ],
																	"text" : "prepend append"
																}

															}
, 															{
																"box" : 																{
																	"fontname" : "Arial",
																	"fontsize" : 10.0,
																	"id" : "obj-4",
																	"maxclass" : "newobj",
																	"numinlets" : 1,
																	"numoutlets" : 2,
																	"outlettype" : [ "int", "" ],
																	"patching_rect" : [ 64.0, 115.0, 36.0, 18.0 ],
																	"text" : "serial"
																}

															}
, 															{
																"box" : 																{
																	"fontname" : "Arial",
																	"fontsize" : 10.0,
																	"id" : "obj-5",
																	"maxclass" : "newobj",
																	"numinlets" : 1,
																	"numoutlets" : 1,
																	"outlettype" : [ "" ],
																	"patching_rect" : [ 31.0, 271.0, 25.0, 18.0 ],
																	"text" : "iter"
																}

															}
, 															{
																"box" : 																{
																	"comment" : "",
																	"id" : "obj-6",
																	"index" : 1,
																	"maxclass" : "inlet",
																	"numinlets" : 0,
																	"numoutlets" : 1,
																	"outlettype" : [ "" ],
																	"patching_rect" : [ 64.0, 45.0, 15.0, 15.0 ]
																}

															}
, 															{
																"box" : 																{
																	"comment" : "",
																	"id" : "obj-7",
																	"index" : 1,
																	"maxclass" : "outlet",
																	"numinlets" : 1,
																	"numoutlets" : 0,
																	"patching_rect" : [ 148.0, 432.0, 15.0, 15.0 ]
																}

															}
 ],
														"lines" : [ 															{
																"patchline" : 																{
																	"destination" : [ "obj-5", 0 ],
																	"source" : [ "obj-1", 0 ]
																}

															}
, 															{
																"patchline" : 																{
																	"destination" : [ "obj-3", 0 ],
																	"midpoints" : [ 106.0, 260.0 ],
																	"source" : [ "obj-10", 0 ]
																}

															}
, 															{
																"patchline" : 																{
																	"destination" : [ "obj-7", 0 ],
																	"source" : [ "obj-3", 0 ]
																}

															}
, 															{
																"patchline" : 																{
																	"destination" : [ "obj-1", 0 ],
																	"source" : [ "obj-4", 1 ]
																}

															}
, 															{
																"patchline" : 																{
																	"destination" : [ "obj-3", 0 ],
																	"source" : [ "obj-5", 0 ]
																}

															}
, 															{
																"patchline" : 																{
																	"destination" : [ "obj-8", 0 ],
																	"source" : [ "obj-6", 0 ]
																}

															}
, 															{
																"patchline" : 																{
																	"destination" : [ "obj-10", 0 ],
																	"midpoints" : [ 229.0, 217.0 ],
																	"source" : [ "obj-8", 1 ]
																}

															}
, 															{
																"patchline" : 																{
																	"destination" : [ "obj-4", 0 ],
																	"source" : [ "obj-8", 0 ]
																}

															}
, 															{
																"patchline" : 																{
																	"destination" : [ "obj-7", 0 ],
																	"midpoints" : [ 364.0, 251.0 ],
																	"source" : [ "obj-8", 2 ]
																}

															}
 ]
													}
,
													"patching_rect" : [ 49.4639892578125, 161.0692138671875, 61.0, 22.0 ],
													"saved_object_attributes" : 													{
														"description" : "",
														"digest" : "",
														"globalpatchername" : "",
														"tags" : ""
													}
,
													"text" : "p devices"
												}

											}
, 											{
												"box" : 												{
													"fontname" : "Trebuchet MS",
													"fontsize" : 12.0,
													"id" : "obj-64",
													"maxclass" : "message",
													"numinlets" : 2,
													"numoutlets" : 1,
													"outlettype" : [ "" ],
													"patching_rect" : [ 49.4639892578125, 131.0692138671875, 48.0, 22.0 ],
													"presentation" : 1,
													"presentation_rect" : [ 69.5, 94.214874267578125, 48.0, 22.0 ],
													"text" : "update"
												}

											}
, 											{
												"box" : 												{
													"allowdrag" : 0,
													"arrow" : 0,
													"fontname" : "Trebuchet MS",
													"fontsize" : 12.0,
													"id" : "obj-65",
													"items" : [ "select...", ",", "Bluetooth-Incoming-Port", ",", "usbmodem14101" ],
													"maxclass" : "umenu",
													"numinlets" : 1,
													"numoutlets" : 3,
													"outlettype" : [ "int", "", "" ],
													"parameter_enable" : 0,
													"patching_rect" : [ 49.4639892578125, 197.0, 135.0, 22.0 ],
													"pattrmode" : 1,
													"presentation" : 1,
													"presentation_rect" : [ 122.0, 94.214874267578125, 122.0, 22.0 ],
													"varname" : "serialPort[1]"
												}

											}
, 											{
												"box" : 												{
													"id" : "obj-2",
													"maxclass" : "newobj",
													"numinlets" : 2,
													"numoutlets" : 3,
													"outlettype" : [ "", "", "" ],
													"patching_rect" : [ 241.0, 316.0, 54.0, 22.0 ],
													"text" : "maxuino"
												}

											}
, 											{
												"box" : 												{
													"comment" : "",
													"id" : "obj-1",
													"index" : 1,
													"maxclass" : "inlet",
													"numinlets" : 0,
													"numoutlets" : 1,
													"outlettype" : [ "bang" ],
													"patching_rect" : [ 236.0, 59.0, 30.0, 30.0 ]
												}

											}
 ],
										"lines" : [ 											{
												"patchline" : 												{
													"destination" : [ "obj-47", 0 ],
													"source" : [ "obj-1", 0 ]
												}

											}
, 											{
												"patchline" : 												{
													"destination" : [ "obj-2", 0 ],
													"source" : [ "obj-114", 0 ]
												}

											}
, 											{
												"patchline" : 												{
													"destination" : [ "obj-2", 0 ],
													"source" : [ "obj-116", 0 ]
												}

											}
, 											{
												"patchline" : 												{
													"destination" : [ "obj-2", 0 ],
													"source" : [ "obj-31", 0 ]
												}

											}
, 											{
												"patchline" : 												{
													"destination" : [ "obj-2", 0 ],
													"source" : [ "obj-47", 0 ]
												}

											}
, 											{
												"patchline" : 												{
													"destination" : [ "obj-64", 0 ],
													"source" : [ "obj-61", 0 ]
												}

											}
, 											{
												"patchline" : 												{
													"destination" : [ "obj-2", 1 ],
													"source" : [ "obj-62", 0 ]
												}

											}
, 											{
												"patchline" : 												{
													"destination" : [ "obj-77", 0 ],
													"source" : [ "obj-64", 0 ]
												}

											}
, 											{
												"patchline" : 												{
													"destination" : [ "obj-62", 0 ],
													"source" : [ "obj-65", 1 ]
												}

											}
, 											{
												"patchline" : 												{
													"destination" : [ "obj-65", 0 ],
													"source" : [ "obj-77", 0 ]
												}

											}
, 											{
												"patchline" : 												{
													"destination" : [ "obj-2", 0 ],
													"source" : [ "obj-9", 0 ]
												}

											}
 ]
									}
,
									"patching_rect" : [ 443.5, 484.0, 59.0, 22.0 ],
									"saved_object_attributes" : 									{
										"description" : "",
										"digest" : "",
										"globalpatchername" : "",
										"tags" : ""
									}
,
									"text" : "p arduino"
								}

							}
, 							{
								"box" : 								{
									"comment" : "",
									"id" : "obj-7",
									"index" : 2,
									"maxclass" : "inlet",
									"numinlets" : 0,
									"numoutlets" : 1,
									"outlettype" : [ "bang" ],
									"patching_rect" : [ 251.0, 17.0, 30.0, 30.0 ]
								}

							}
, 							{
								"box" : 								{
									"id" : "obj-6",
									"maxclass" : "newobj",
									"numinlets" : 2,
									"numoutlets" : 1,
									"outlettype" : [ "jit_matrix" ],
									"patching_rect" : [ 201.0, 187.746063232421875, 93.0, 22.0 ],
									"text" : "cv.jit.faces.draw"
								}

							}
, 							{
								"box" : 								{
									"id" : "obj-110",
									"maxclass" : "message",
									"numinlets" : 2,
									"numoutlets" : 1,
									"outlettype" : [ "" ],
									"patching_rect" : [ 251.0, 52.0, 37.0, 22.0 ],
									"text" : "close"
								}

							}
, 							{
								"box" : 								{
									"id" : "obj-109",
									"maxclass" : "message",
									"numinlets" : 2,
									"numoutlets" : 1,
									"outlettype" : [ "" ],
									"patching_rect" : [ 201.0, 52.0, 35.0, 22.0 ],
									"text" : "open"
								}

							}
, 							{
								"box" : 								{
									"format" : 6,
									"id" : "obj-5",
									"maxclass" : "flonum",
									"numinlets" : 1,
									"numoutlets" : 2,
									"outlettype" : [ "", "bang" ],
									"parameter_enable" : 0,
									"patching_rect" : [ 201.24017333984375, 424.0, 50.0, 22.0 ]
								}

							}
, 							{
								"box" : 								{
									"id" : "obj-4",
									"linecount" : 2,
									"maxclass" : "comment",
									"numinlets" : 1,
									"numoutlets" : 0,
									"patching_rect" : [ 329.0, 372.5, 168.0, 33.0 ],
									"text" : "use the face loc value to control the xfade level"
								}

							}
, 							{
								"box" : 								{
									"id" : "obj-52",
									"maxclass" : "newobj",
									"numinlets" : 6,
									"numoutlets" : 1,
									"outlettype" : [ "" ],
									"patching_rect" : [ 201.24017333984375, 378.0, 117.0, 22.0 ],
									"text" : "scale 25. 200. 0. 1.5"
								}

							}
, 							{
								"box" : 								{
									"id" : "obj-51",
									"linecount" : 4,
									"maxclass" : "comment",
									"numinlets" : 1,
									"numoutlets" : 0,
									"patching_rect" : [ 307.0, 299.0, 145.0, 60.0 ],
									"text" : "get the size of the face area x side (distance between face and camera)"
								}

							}
, 							{
								"box" : 								{
									"id" : "obj-49",
									"maxclass" : "message",
									"numinlets" : 2,
									"numoutlets" : 1,
									"outlettype" : [ "" ],
									"patching_rect" : [ 118.49017333984375, 378.0, 50.0, 22.0 ],
									"text" : "61."
								}

							}
, 							{
								"box" : 								{
									"id" : "obj-47",
									"maxclass" : "newobj",
									"numinlets" : 2,
									"numoutlets" : 1,
									"outlettype" : [ "" ],
									"patching_rect" : [ 201.24017333984375, 336.5, 73.0, 22.0 ],
									"text" : "expr $f2-$f1"
								}

							}
, 							{
								"box" : 								{
									"id" : "obj-38",
									"maxclass" : "newobj",
									"numinlets" : 1,
									"numoutlets" : 4,
									"outlettype" : [ "int", "int", "int", "int" ],
									"patching_rect" : [ 201.24017333984375, 300.091461181640625, 87.0, 22.0 ],
									"text" : "unpack 0 0 0 0"
								}

							}
, 							{
								"box" : 								{
									"fontname" : "Arial",
									"fontsize" : 12.0,
									"id" : "obj-21",
									"maxclass" : "message",
									"numinlets" : 2,
									"numoutlets" : 1,
									"outlettype" : [ "" ],
									"patching_rect" : [ 63.99017333984375, 289.091461181640625, 121.0, 22.0 ],
									"text" : "77. 79. 138. 140."
								}

							}
, 							{
								"box" : 								{
									"fontname" : "Arial",
									"fontsize" : 12.0,
									"id" : "obj-26",
									"maxclass" : "comment",
									"numinlets" : 1,
									"numoutlets" : 0,
									"patching_rect" : [ 61.99017333984375, 319.0, 125.0, 20.0 ],
									"text" : "face blob coordinates"
								}

							}
, 							{
								"box" : 								{
									"fontname" : "Arial",
									"fontsize" : 12.0,
									"id" : "obj-27",
									"maxclass" : "newobj",
									"numinlets" : 1,
									"numoutlets" : 3,
									"outlettype" : [ "", "", "" ],
									"patching_rect" : [ 201.24017333984375, 247.796844482421875, 63.0, 22.0 ],
									"text" : "jit.iter"
								}

							}
, 							{
								"box" : 								{
									"id" : "obj-3",
									"maxclass" : "newobj",
									"numinlets" : 0,
									"numoutlets" : 1,
									"outlettype" : [ "" ],
									"patching_rect" : [ 134.0, 48.0, 47.0, 22.0 ],
									"text" : "r metro"
								}

							}
, 							{
								"box" : 								{
									"comment" : "",
									"id" : "obj-1",
									"index" : 1,
									"maxclass" : "outlet",
									"numinlets" : 1,
									"numoutlets" : 0,
									"patching_rect" : [ 201.0, 480.0, 30.0, 30.0 ]
								}

							}
, 							{
								"box" : 								{
									"comment" : "",
									"id" : "obj-75",
									"index" : 1,
									"maxclass" : "inlet",
									"numinlets" : 0,
									"numoutlets" : 1,
									"outlettype" : [ "bang" ],
									"patching_rect" : [ 201.0, 17.0, 30.0, 30.0 ]
								}

							}
, 							{
								"box" : 								{
									"id" : "obj-113",
									"maxclass" : "newobj",
									"numinlets" : 1,
									"numoutlets" : 2,
									"outlettype" : [ "jit_matrix", "" ],
									"patching_rect" : [ 201.0, 133.5, 71.0, 22.0 ],
									"text" : "jit.rgb2luma"
								}

							}
, 							{
								"box" : 								{
									"id" : "obj-112",
									"maxclass" : "jit.pwindow",
									"numinlets" : 1,
									"numoutlets" : 2,
									"outlettype" : [ "", "" ],
									"patching_rect" : [ 318.6143798828125, 162.796844482421875, 121.771209716796875, 81.8984375 ]
								}

							}
, 							{
								"box" : 								{
									"id" : "obj-105",
									"maxclass" : "newobj",
									"numinlets" : 1,
									"numoutlets" : 2,
									"outlettype" : [ "jit_matrix", "" ],
									"patching_rect" : [ 201.0, 109.5, 128.0, 22.0 ],
									"text" : "jit.dimmap @invert 1 0"
								}

							}
, 							{
								"box" : 								{
									"id" : "obj-104",
									"maxclass" : "newobj",
									"numinlets" : 1,
									"numoutlets" : 2,
									"outlettype" : [ "jit_matrix", "" ],
									"patching_rect" : [ 201.0, 85.306961059570312, 166.0, 22.0 ],
									"text" : "jit.qt.grab 240 180 @unique 1"
								}

							}
, 							{
								"box" : 								{
									"id" : "obj-74",
									"maxclass" : "newobj",
									"numinlets" : 1,
									"numoutlets" : 2,
									"outlettype" : [ "jit_matrix", "" ],
									"patching_rect" : [ 201.0, 158.796844482421875, 64.0, 22.0 ],
									"text" : "cv.jit.faces"
								}

							}
 ],
						"lines" : [ 							{
								"patchline" : 								{
									"destination" : [ "obj-2", 0 ],
									"source" : [ "obj-10", 0 ]
								}

							}
, 							{
								"patchline" : 								{
									"destination" : [ "obj-105", 0 ],
									"source" : [ "obj-104", 0 ]
								}

							}
, 							{
								"patchline" : 								{
									"destination" : [ "obj-113", 0 ],
									"source" : [ "obj-105", 0 ]
								}

							}
, 							{
								"patchline" : 								{
									"destination" : [ "obj-104", 0 ],
									"source" : [ "obj-109", 0 ]
								}

							}
, 							{
								"patchline" : 								{
									"destination" : [ "obj-104", 0 ],
									"source" : [ "obj-110", 0 ]
								}

							}
, 							{
								"patchline" : 								{
									"destination" : [ "obj-6", 1 ],
									"order" : 0,
									"source" : [ "obj-113", 0 ]
								}

							}
, 							{
								"patchline" : 								{
									"destination" : [ "obj-74", 0 ],
									"order" : 1,
									"source" : [ "obj-113", 0 ]
								}

							}
, 							{
								"patchline" : 								{
									"destination" : [ "obj-21", 1 ],
									"order" : 1,
									"source" : [ "obj-27", 0 ]
								}

							}
, 							{
								"patchline" : 								{
									"destination" : [ "obj-38", 0 ],
									"order" : 0,
									"source" : [ "obj-27", 0 ]
								}

							}
, 							{
								"patchline" : 								{
									"destination" : [ "obj-104", 0 ],
									"source" : [ "obj-3", 0 ]
								}

							}
, 							{
								"patchline" : 								{
									"destination" : [ "obj-47", 1 ],
									"source" : [ "obj-38", 2 ]
								}

							}
, 							{
								"patchline" : 								{
									"destination" : [ "obj-47", 0 ],
									"source" : [ "obj-38", 0 ]
								}

							}
, 							{
								"patchline" : 								{
									"destination" : [ "obj-49", 1 ],
									"order" : 1,
									"source" : [ "obj-47", 0 ]
								}

							}
, 							{
								"patchline" : 								{
									"destination" : [ "obj-52", 0 ],
									"order" : 0,
									"source" : [ "obj-47", 0 ]
								}

							}
, 							{
								"patchline" : 								{
									"destination" : [ "obj-1", 0 ],
									"order" : 1,
									"source" : [ "obj-5", 0 ]
								}

							}
, 							{
								"patchline" : 								{
									"destination" : [ "obj-8", 0 ],
									"order" : 0,
									"source" : [ "obj-5", 0 ]
								}

							}
, 							{
								"patchline" : 								{
									"destination" : [ "obj-5", 0 ],
									"source" : [ "obj-52", 0 ]
								}

							}
, 							{
								"patchline" : 								{
									"destination" : [ "obj-112", 0 ],
									"source" : [ "obj-6", 0 ]
								}

							}
, 							{
								"patchline" : 								{
									"destination" : [ "obj-110", 0 ],
									"source" : [ "obj-7", 0 ]
								}

							}
, 							{
								"patchline" : 								{
									"destination" : [ "obj-27", 0 ],
									"order" : 1,
									"source" : [ "obj-74", 0 ]
								}

							}
, 							{
								"patchline" : 								{
									"destination" : [ "obj-6", 0 ],
									"order" : 0,
									"source" : [ "obj-74", 0 ]
								}

							}
, 							{
								"patchline" : 								{
									"destination" : [ "obj-109", 0 ],
									"source" : [ "obj-75", 0 ]
								}

							}
 ],
						"styles" : [ 							{
								"name" : "newobjGreen-1",
								"default" : 								{
									"accentcolor" : [ 0.0, 0.533333, 0.168627, 1.0 ]
								}
,
								"parentstyle" : "",
								"multi" : 0
							}
, 							{
								"name" : "newobjYellow-1",
								"default" : 								{
									"fontsize" : [ 12.059008 ],
									"accentcolor" : [ 0.82517, 0.78181, 0.059545, 1.0 ]
								}
,
								"parentstyle" : "",
								"multi" : 0
							}
, 							{
								"name" : "numberGold-1",
								"default" : 								{
									"accentcolor" : [ 0.764706, 0.592157, 0.101961, 1.0 ]
								}
,
								"parentstyle" : "",
								"multi" : 0
							}
 ]
					}
,
					"patching_rect" : [ 82.0, 372.0, 50.0, 22.0 ],
					"saved_object_attributes" : 					{
						"description" : "",
						"digest" : "",
						"globalpatchername" : "",
						"tags" : ""
					}
,
					"text" : "p mirror"
				}

			}
, 			{
				"box" : 				{
					"id" : "obj-64",
					"maxclass" : "message",
					"numinlets" : 2,
					"numoutlets" : 1,
					"outlettype" : [ "" ],
					"patching_rect" : [ 680.0, 110.0, 125.0, 22.0 ],
					"text" : "0., 10 10000 0. 10000"
				}

			}
, 			{
				"box" : 				{
					"id" : "obj-62",
					"maxclass" : "newobj",
					"numinlets" : 3,
					"numoutlets" : 2,
					"outlettype" : [ "", "bang" ],
					"patching_rect" : [ 680.0, 147.0, 41.0, 22.0 ],
					"text" : "line 0."
				}

			}
, 			{
				"box" : 				{
					"id" : "obj-50",
					"maxclass" : "jit.pwindow",
					"numinlets" : 1,
					"numoutlets" : 2,
					"outlettype" : [ "", "" ],
					"patching_rect" : [ 652.0, 258.867462158203125, 102.0, 65.132530212402344 ]
				}

			}
, 			{
				"box" : 				{
					"attr" : "theta",
					"id" : "obj-49",
					"maxclass" : "attrui",
					"numinlets" : 1,
					"numoutlets" : 1,
					"outlettype" : [ "" ],
					"patching_rect" : [ 680.0, 181.0, 150.0, 22.0 ]
				}

			}
, 			{
				"box" : 				{
					"id" : "obj-48",
					"maxclass" : "newobj",
					"numinlets" : 1,
					"numoutlets" : 2,
					"outlettype" : [ "jit_matrix", "" ],
					"patching_rect" : [ 652.0, 223.1204833984375, 307.0, 22.0 ],
					"text" : "jit.rota @boundmode 4 @anchor_x 180 @anchor_y 120"
				}

			}
, 			{
				"box" : 				{
					"id" : "obj-47",
					"maxclass" : "button",
					"numinlets" : 1,
					"numoutlets" : 1,
					"outlettype" : [ "bang" ],
					"parameter_enable" : 0,
					"patching_rect" : [ 324.0, 105.5, 24.0, 24.0 ]
				}

			}
, 			{
				"box" : 				{
					"id" : "obj-42",
					"maxclass" : "newobj",
					"numinlets" : 1,
					"numoutlets" : 1,
					"outlettype" : [ "jit_matrix" ],
					"patcher" : 					{
						"fileversion" : 1,
						"appversion" : 						{
							"major" : 8,
							"minor" : 0,
							"revision" : 3,
							"architecture" : "x64",
							"modernui" : 1
						}
,
						"classnamespace" : "box",
						"rect" : [ 582.0, 86.0, 628.0, 480.0 ],
						"bglocked" : 0,
						"openinpresentation" : 0,
						"default_fontsize" : 12.0,
						"default_fontface" : 0,
						"default_fontname" : "Arial",
						"gridonopen" : 1,
						"gridsize" : [ 15.0, 15.0 ],
						"gridsnaponopen" : 1,
						"objectsnaponopen" : 1,
						"statusbarvisible" : 2,
						"toolbarvisible" : 1,
						"lefttoolbarpinned" : 0,
						"toptoolbarpinned" : 0,
						"righttoolbarpinned" : 0,
						"bottomtoolbarpinned" : 0,
						"toolbars_unpinned_last_save" : 0,
						"tallnewobj" : 0,
						"boxanimatetime" : 200,
						"enablehscroll" : 1,
						"enablevscroll" : 1,
						"devicewidth" : 0.0,
						"description" : "",
						"digest" : "",
						"tags" : "",
						"style" : "",
						"subpatcher_template" : "",
						"boxes" : [ 							{
								"box" : 								{
									"id" : "obj-58",
									"maxclass" : "newobj",
									"numinlets" : 1,
									"numoutlets" : 0,
									"patching_rect" : [ 49.0, 140.0, 49.0, 22.0 ],
									"text" : "s metro"
								}

							}
, 							{
								"box" : 								{
									"id" : "obj-57",
									"maxclass" : "toggle",
									"numinlets" : 1,
									"numoutlets" : 1,
									"outlettype" : [ "int" ],
									"parameter_enable" : 0,
									"patching_rect" : [ 117.0, 64.0, 24.0, 24.0 ]
								}

							}
, 							{
								"box" : 								{
									"id" : "obj-55",
									"maxclass" : "newobj",
									"numinlets" : 2,
									"numoutlets" : 1,
									"outlettype" : [ "bang" ],
									"patching_rect" : [ 117.0, 98.0, 63.0, 22.0 ],
									"text" : "qmetro 30"
								}

							}
, 							{
								"box" : 								{
									"format" : 6,
									"id" : "obj-54",
									"maxclass" : "flonum",
									"numinlets" : 1,
									"numoutlets" : 2,
									"outlettype" : [ "", "bang" ],
									"parameter_enable" : 0,
									"patching_rect" : [ 481.0, 156.0, 50.0, 22.0 ]
								}

							}
, 							{
								"box" : 								{
									"id" : "obj-52",
									"maxclass" : "button",
									"numinlets" : 1,
									"numoutlets" : 1,
									"outlettype" : [ "bang" ],
									"parameter_enable" : 0,
									"patching_rect" : [ 212.0, 124.0, 24.0, 24.0 ]
								}

							}
, 							{
								"box" : 								{
									"id" : "obj-48",
									"maxclass" : "message",
									"numinlets" : 2,
									"numoutlets" : 1,
									"outlettype" : [ "" ],
									"patching_rect" : [ 349.0, 47.0, 135.0, 22.0 ],
									"text" : "0., 800. 10000 0. 10000"
								}

							}
, 							{
								"box" : 								{
									"id" : "obj-46",
									"maxclass" : "newobj",
									"numinlets" : 3,
									"numoutlets" : 2,
									"outlettype" : [ "", "bang" ],
									"patching_rect" : [ 349.0, 90.0, 41.0, 22.0 ],
									"text" : "line 0."
								}

							}
, 							{
								"box" : 								{
									"floatoutput" : 1,
									"id" : "obj-45",
									"knobshape" : 4,
									"maxclass" : "slider",
									"numinlets" : 1,
									"numoutlets" : 1,
									"outlettype" : [ "" ],
									"parameter_enable" : 0,
									"patching_rect" : [ 401.0, 126.0, 140.0, 20.0 ],
									"prototypename" : "triangle horizontal",
									"size" : 3200.0
								}

							}
, 							{
								"box" : 								{
									"id" : "obj-10",
									"maxclass" : "jit.pwindow",
									"numinlets" : 1,
									"numoutlets" : 2,
									"outlettype" : [ "", "" ],
									"patching_rect" : [ 267.0, 325.5, 108.0, 73.0 ]
								}

							}
, 							{
								"box" : 								{
									"fontname" : "Arial",
									"fontsize" : 13.0,
									"id" : "obj-21",
									"maxclass" : "newobj",
									"numinlets" : 1,
									"numoutlets" : 2,
									"outlettype" : [ "jit_matrix", "" ],
									"patching_rect" : [ 267.0, 290.0, 113.0, 23.0 ],
									"text" : "jit.clip @max 255"
								}

							}
, 							{
								"box" : 								{
									"comment" : "",
									"id" : "obj-2",
									"index" : 1,
									"maxclass" : "outlet",
									"numinlets" : 1,
									"numoutlets" : 0,
									"patching_rect" : [ 117.0, 284.0, 30.0, 30.0 ]
								}

							}
, 							{
								"box" : 								{
									"comment" : "",
									"id" : "obj-1",
									"index" : 1,
									"maxclass" : "inlet",
									"numinlets" : 0,
									"numoutlets" : 1,
									"outlettype" : [ "bang" ],
									"patching_rect" : [ 114.0, 17.0, 30.0, 30.0 ]
								}

							}
, 							{
								"box" : 								{
									"fontname" : "Arial",
									"fontsize" : 13.0,
									"id" : "obj-41",
									"maxclass" : "newobj",
									"numinlets" : 1,
									"numoutlets" : 2,
									"outlettype" : [ "jit_matrix", "" ],
									"patching_rect" : [ 117.0, 156.0, 167.0, 23.0 ],
									"text" : "jit.matrix 2 float32 320 240"
								}

							}
, 							{
								"box" : 								{
									"id" : "obj-29",
									"linecount" : 2,
									"maxclass" : "newobj",
									"numinlets" : 2,
									"numoutlets" : 2,
									"outlettype" : [ "jit_matrix", "" ],
									"patching_rect" : [ 117.0, 191.0, 272.0, 35.0 ],
									"text" : "jit.expr @expr hypot(snorm[0]\\,snorm[1])*in[1]*1.2 (atan2(snorm[1]\\,snorm[0])/PI)*in[1].+in[1]*1.5"
								}

							}
, 							{
								"box" : 								{
									"id" : "obj-8",
									"maxclass" : "newobj",
									"numinlets" : 1,
									"numoutlets" : 2,
									"outlettype" : [ "jit_matrix", "" ],
									"patching_rect" : [ 117.0, 237.5, 149.0, 22.0 ],
									"text" : "jit.matrix 2 long 1200 1600"
								}

							}
 ],
						"lines" : [ 							{
								"patchline" : 								{
									"destination" : [ "obj-57", 0 ],
									"source" : [ "obj-1", 0 ]
								}

							}
, 							{
								"patchline" : 								{
									"destination" : [ "obj-10", 0 ],
									"source" : [ "obj-21", 0 ]
								}

							}
, 							{
								"patchline" : 								{
									"destination" : [ "obj-8", 0 ],
									"source" : [ "obj-29", 0 ]
								}

							}
, 							{
								"patchline" : 								{
									"destination" : [ "obj-29", 0 ],
									"source" : [ "obj-41", 0 ]
								}

							}
, 							{
								"patchline" : 								{
									"destination" : [ "obj-54", 0 ],
									"source" : [ "obj-45", 0 ]
								}

							}
, 							{
								"patchline" : 								{
									"destination" : [ "obj-45", 0 ],
									"source" : [ "obj-46", 0 ]
								}

							}
, 							{
								"patchline" : 								{
									"destination" : [ "obj-48", 0 ],
									"source" : [ "obj-46", 1 ]
								}

							}
, 							{
								"patchline" : 								{
									"destination" : [ "obj-46", 0 ],
									"source" : [ "obj-48", 0 ]
								}

							}
, 							{
								"patchline" : 								{
									"destination" : [ "obj-41", 0 ],
									"source" : [ "obj-52", 0 ]
								}

							}
, 							{
								"patchline" : 								{
									"destination" : [ "obj-29", 1 ],
									"source" : [ "obj-54", 0 ]
								}

							}
, 							{
								"patchline" : 								{
									"destination" : [ "obj-52", 0 ],
									"order" : 0,
									"source" : [ "obj-55", 0 ]
								}

							}
, 							{
								"patchline" : 								{
									"destination" : [ "obj-58", 0 ],
									"order" : 1,
									"source" : [ "obj-55", 0 ]
								}

							}
, 							{
								"patchline" : 								{
									"destination" : [ "obj-48", 0 ],
									"order" : 0,
									"source" : [ "obj-57", 0 ]
								}

							}
, 							{
								"patchline" : 								{
									"destination" : [ "obj-55", 0 ],
									"order" : 1,
									"source" : [ "obj-57", 0 ]
								}

							}
, 							{
								"patchline" : 								{
									"destination" : [ "obj-2", 0 ],
									"order" : 1,
									"source" : [ "obj-8", 0 ]
								}

							}
, 							{
								"patchline" : 								{
									"destination" : [ "obj-21", 0 ],
									"order" : 0,
									"source" : [ "obj-8", 0 ]
								}

							}
 ]
					}
,
					"patching_rect" : [ 324.0, 139.5, 61.0, 22.0 ],
					"saved_object_attributes" : 					{
						"description" : "",
						"digest" : "",
						"globalpatchername" : "",
						"tags" : ""
					}
,
					"text" : "p cartopol"
				}

			}
, 			{
				"box" : 				{
					"attr" : "op",
					"id" : "obj-28",
					"maxclass" : "attrui",
					"numinlets" : 1,
					"numoutlets" : 1,
					"outlettype" : [ "" ],
					"patching_rect" : [ 457.0, 352.0, 150.0, 22.0 ]
				}

			}
, 			{
				"box" : 				{
					"id" : "obj-27",
					"maxclass" : "jit.pwindow",
					"numinlets" : 1,
					"numoutlets" : 2,
					"outlettype" : [ "", "" ],
					"patching_rect" : [ 457.0, 436.5, 258.660369873046875, 165.168670654296875 ]
				}

			}
, 			{
				"box" : 				{
					"attr" : "xfade",
					"fontface" : 0,
					"fontname" : "Arial",
					"fontsize" : 13.0,
					"id" : "obj-22",
					"maxclass" : "attrui",
					"numinlets" : 1,
					"numoutlets" : 1,
					"outlettype" : [ "" ],
					"patching_rect" : [ 82.0, 455.5, 109.0, 23.0 ],
					"text_width" : 62.0
				}

			}
, 			{
				"box" : 				{
					"id" : "obj-20",
					"maxclass" : "newobj",
					"numinlets" : 2,
					"numoutlets" : 2,
					"outlettype" : [ "jit_matrix", "" ],
					"patching_rect" : [ 457.0, 392.0, 74.0, 22.0 ],
					"text" : "jit.op @op &"
				}

			}
, 			{
				"box" : 				{
					"floatoutput" : 1,
					"id" : "obj-19",
					"knobshape" : 4,
					"maxclass" : "slider",
					"numinlets" : 1,
					"numoutlets" : 1,
					"outlettype" : [ "" ],
					"parameter_enable" : 0,
					"patching_rect" : [ 82.0, 418.0, 140.0, 20.0 ],
					"prototypename" : "triangle horizontal",
					"size" : 1.0
				}

			}
, 			{
				"box" : 				{
					"id" : "obj-16",
					"maxclass" : "jit.pwindow",
					"numinlets" : 1,
					"numoutlets" : 2,
					"outlettype" : [ "", "" ],
					"patching_rect" : [ 92.0, 537.05419921875, 76.0, 46.614459991455078 ]
				}

			}
, 			{
				"box" : 				{
					"id" : "obj-13",
					"maxclass" : "newobj",
					"numinlets" : 2,
					"numoutlets" : 2,
					"outlettype" : [ "jit_matrix", "" ],
					"patching_rect" : [ 92.0, 496.0, 50.0, 22.0 ],
					"text" : "jit.xfade"
				}

			}
, 			{
				"box" : 				{
					"id" : "obj-11",
					"maxclass" : "playbar",
					"numinlets" : 1,
					"numoutlets" : 2,
					"outlettype" : [ "", "int" ],
					"patching_rect" : [ 498.5, 128.5, 161.0, 20.0 ]
				}

			}
, 			{
				"box" : 				{
					"id" : "obj-2",
					"maxclass" : "jit.pwindow",
					"numinlets" : 1,
					"numoutlets" : 2,
					"outlettype" : [ "", "" ],
					"patching_rect" : [ 435.0, 199.0, 110.0, 70.240966796875 ]
				}

			}
, 			{
				"box" : 				{
					"id" : "obj-7",
					"maxclass" : "newobj",
					"numinlets" : 1,
					"numoutlets" : 2,
					"outlettype" : [ "jit_matrix", "" ],
					"patching_rect" : [ 435.0, 166.0, 145.0, 22.0 ],
					"text" : "jit.movie 360 240 @rate 2"
				}

			}
, 			{
				"box" : 				{
					"id" : "obj-6",
					"maxclass" : "message",
					"numinlets" : 2,
					"numoutlets" : 1,
					"outlettype" : [ "" ],
					"patching_rect" : [ 440.5, 98.5, 91.0, 22.0 ],
					"text" : "read circle.mp4"
				}

			}
, 			{
				"box" : 				{
					"id" : "obj-9",
					"maxclass" : "jit.pwindow",
					"numinlets" : 1,
					"numoutlets" : 2,
					"outlettype" : [ "", "" ],
					"patching_rect" : [ 200.0, 210.311935424804688, 107.069450378417969, 67.376129150390625 ]
				}

			}
, 			{
				"box" : 				{
					"id" : "obj-1",
					"maxclass" : "newobj",
					"numinlets" : 2,
					"numoutlets" : 2,
					"outlettype" : [ "jit_matrix", "" ],
					"patching_rect" : [ 204.0, 176.5, 139.0, 22.0 ],
					"text" : "jit.repos @boundmode 2"
				}

			}
, 			{
				"box" : 				{
					"id" : "obj-38",
					"maxclass" : "playbar",
					"numinlets" : 1,
					"numoutlets" : 2,
					"outlettype" : [ "", "int" ],
					"patching_rect" : [ 68.0, 128.5, 161.0, 20.0 ]
				}

			}
, 			{
				"box" : 				{
					"id" : "obj-15",
					"maxclass" : "jit.pwindow",
					"numinlets" : 1,
					"numoutlets" : 2,
					"outlettype" : [ "", "" ],
					"patching_rect" : [ 40.5, 199.0, 106.603775024414062, 67.376129150390625 ]
				}

			}
, 			{
				"box" : 				{
					"bgcolor" : [ 0.325490196078431, 0.141176470588235, 0.184313725490196, 1.0 ],
					"bubble" : 1,
					"bubbleside" : 3,
					"fontface" : 0,
					"fontname" : "Arial",
					"fontsize" : 16.0,
					"id" : "obj-30",
					"linecount" : 2,
					"maxclass" : "comment",
					"numinlets" : 1,
					"numoutlets" : 0,
					"patching_rect" : [ 14.5, 19.0, 108.0, 46.0 ],
					"text" : "Press here to start",
					"textcolor" : [ 0.462745100259781, 0.180392161011696, 0.180392161011696, 1.0 ]
				}

			}
, 			{
				"box" : 				{
					"bgcolor" : [ 0.643137254901961, 0.007843137254902, 0.007843137254902, 1.0 ],
					"checkedcolor" : [ 0.682352941176471, 0.529411764705882, 0.529411764705882, 1.0 ],
					"id" : "obj-4",
					"maxclass" : "toggle",
					"numinlets" : 1,
					"numoutlets" : 1,
					"outlettype" : [ "int" ],
					"parameter_enable" : 0,
					"patching_rect" : [ 134.0, 19.0, 46.0, 46.0 ],
					"uncheckedcolor" : [ 0.996078431372549, 0.996078431372549, 0.996078431372549, 1.0 ]
				}

			}
, 			{
				"box" : 				{
					"id" : "obj-17",
					"maxclass" : "message",
					"numinlets" : 2,
					"numoutlets" : 1,
					"outlettype" : [ "" ],
					"patching_rect" : [ 40.5, 90.5, 89.0, 22.0 ],
					"text" : "read stare.mp4"
				}

			}
, 			{
				"box" : 				{
					"id" : "obj-3",
					"maxclass" : "newobj",
					"numinlets" : 1,
					"numoutlets" : 2,
					"outlettype" : [ "jit_matrix", "" ],
					"patching_rect" : [ 40.5, 166.0, 99.0, 22.0 ],
					"text" : "jit.movie 360 240"
				}

			}
 ],
		"lines" : [ 			{
				"patchline" : 				{
					"destination" : [ "obj-9", 0 ],
					"source" : [ "obj-1", 0 ]
				}

			}
, 			{
				"patchline" : 				{
					"destination" : [ "obj-7", 0 ],
					"source" : [ "obj-11", 0 ]
				}

			}
, 			{
				"patchline" : 				{
					"destination" : [ "obj-80", 0 ],
					"source" : [ "obj-12", 0 ]
				}

			}
, 			{
				"patchline" : 				{
					"destination" : [ "obj-16", 0 ],
					"source" : [ "obj-13", 0 ]
				}

			}
, 			{
				"patchline" : 				{
					"destination" : [ "obj-13", 0 ],
					"source" : [ "obj-15", 0 ]
				}

			}
, 			{
				"patchline" : 				{
					"destination" : [ "obj-20", 0 ],
					"source" : [ "obj-16", 0 ]
				}

			}
, 			{
				"patchline" : 				{
					"destination" : [ "obj-3", 0 ],
					"source" : [ "obj-17", 0 ]
				}

			}
, 			{
				"patchline" : 				{
					"destination" : [ "obj-80", 1 ],
					"source" : [ "obj-18", 0 ]
				}

			}
, 			{
				"patchline" : 				{
					"destination" : [ "obj-22", 0 ],
					"source" : [ "obj-19", 0 ]
				}

			}
, 			{
				"patchline" : 				{
					"destination" : [ "obj-48", 0 ],
					"source" : [ "obj-2", 0 ]
				}

			}
, 			{
				"patchline" : 				{
					"destination" : [ "obj-27", 0 ],
					"source" : [ "obj-20", 0 ]
				}

			}
, 			{
				"patchline" : 				{
					"destination" : [ "obj-12", 0 ],
					"source" : [ "obj-21", 0 ]
				}

			}
, 			{
				"patchline" : 				{
					"destination" : [ "obj-13", 0 ],
					"source" : [ "obj-22", 0 ]
				}

			}
, 			{
				"patchline" : 				{
					"destination" : [ "obj-64", 0 ],
					"source" : [ "obj-25", 0 ]
				}

			}
, 			{
				"patchline" : 				{
					"destination" : [ "obj-20", 0 ],
					"source" : [ "obj-28", 0 ]
				}

			}
, 			{
				"patchline" : 				{
					"destination" : [ "obj-1", 0 ],
					"order" : 0,
					"source" : [ "obj-3", 0 ]
				}

			}
, 			{
				"patchline" : 				{
					"destination" : [ "obj-15", 0 ],
					"order" : 1,
					"source" : [ "obj-3", 0 ]
				}

			}
, 			{
				"patchline" : 				{
					"destination" : [ "obj-3", 0 ],
					"source" : [ "obj-38", 0 ]
				}

			}
, 			{
				"patchline" : 				{
					"destination" : [ "obj-17", 0 ],
					"order" : 1,
					"source" : [ "obj-4", 0 ]
				}

			}
, 			{
				"patchline" : 				{
					"destination" : [ "obj-6", 0 ],
					"order" : 0,
					"source" : [ "obj-4", 0 ]
				}

			}
, 			{
				"patchline" : 				{
					"destination" : [ "obj-1", 1 ],
					"source" : [ "obj-42", 0 ]
				}

			}
, 			{
				"patchline" : 				{
					"destination" : [ "obj-42", 0 ],
					"source" : [ "obj-47", 0 ]
				}

			}
, 			{
				"patchline" : 				{
					"destination" : [ "obj-50", 0 ],
					"source" : [ "obj-48", 0 ]
				}

			}
, 			{
				"patchline" : 				{
					"destination" : [ "obj-48", 0 ],
					"source" : [ "obj-49", 0 ]
				}

			}
, 			{
				"patchline" : 				{
					"destination" : [ "obj-47", 0 ],
					"source" : [ "obj-5", 0 ]
				}

			}
, 			{
				"patchline" : 				{
					"destination" : [ "obj-20", 1 ],
					"source" : [ "obj-50", 0 ]
				}

			}
, 			{
				"patchline" : 				{
					"destination" : [ "obj-7", 0 ],
					"source" : [ "obj-6", 0 ]
				}

			}
, 			{
				"patchline" : 				{
					"destination" : [ "obj-49", 0 ],
					"source" : [ "obj-62", 0 ]
				}

			}
, 			{
				"patchline" : 				{
					"destination" : [ "obj-64", 0 ],
					"source" : [ "obj-62", 1 ]
				}

			}
, 			{
				"patchline" : 				{
					"destination" : [ "obj-62", 0 ],
					"source" : [ "obj-64", 0 ]
				}

			}
, 			{
				"patchline" : 				{
					"destination" : [ "obj-2", 0 ],
					"source" : [ "obj-7", 0 ]
				}

			}
, 			{
				"patchline" : 				{
					"destination" : [ "obj-19", 0 ],
					"source" : [ "obj-80", 0 ]
				}

			}
, 			{
				"patchline" : 				{
					"destination" : [ "obj-13", 1 ],
					"source" : [ "obj-9", 0 ]
				}

			}
 ],
		"parameters" : 		{
			"obj-80::obj-2::obj-2::obj-125::obj-7::obj-126" : [ "value", "value", 0 ],
			"obj-80::obj-2::obj-2::obj-125::obj-13::obj-126" : [ "value[1]", "value", 0 ],
			"obj-80::obj-2::obj-2::obj-125::obj-111::obj-126" : [ "value[19]", "value", 0 ],
			"obj-80::obj-2::obj-2::obj-125::obj-58::obj-126" : [ "value[9]", "value", 0 ],
			"obj-80::obj-2::obj-2::obj-125::obj-62::obj-126" : [ "value[10]", "value", 0 ],
			"obj-80::obj-2::obj-2::obj-125::obj-29::obj-126" : [ "value[3]", "value", 0 ],
			"obj-80::obj-2::obj-2::obj-125::obj-70::obj-126" : [ "value[12]", "value", 0 ],
			"obj-80::obj-2::obj-2::obj-125::obj-46::obj-126" : [ "value[6]", "value", 0 ],
			"obj-80::obj-2::obj-2::obj-125::obj-82::obj-126" : [ "value[15]", "value", 0 ],
			"obj-80::obj-2::obj-2::obj-125::obj-50::obj-126" : [ "value[7]", "value", 0 ],
			"obj-80::obj-2::obj-2::obj-125::obj-89::obj-126" : [ "value[16]", "value", 0 ],
			"obj-80::obj-2::obj-2::obj-125::obj-16" : [ "live.text", "live.text", 0 ],
			"obj-80::obj-2::obj-2::obj-125::obj-99::obj-126" : [ "value[17]", "value", 0 ],
			"obj-80::obj-2::obj-2::obj-125::obj-104::obj-126" : [ "value[18]", "value", 0 ],
			"obj-80::obj-2::obj-2::obj-125::obj-20::obj-126" : [ "value[2]", "value", 0 ],
			"obj-80::obj-2::obj-2::obj-125::obj-66::obj-126" : [ "value[11]", "value", 0 ],
			"obj-80::obj-2::obj-2::obj-125::obj-40::obj-126" : [ "value[5]", "value", 0 ],
			"obj-80::obj-2::obj-2::obj-125::obj-74::obj-126" : [ "value[13]", "value", 0 ],
			"obj-80::obj-2::obj-2::obj-125::obj-34::obj-126" : [ "value[4]", "value", 0 ],
			"obj-80::obj-2::obj-2::obj-125::obj-78::obj-126" : [ "value[14]", "value", 0 ],
			"obj-80::obj-2::obj-2::obj-125::obj-54::obj-126" : [ "value[8]", "value", 0 ],
			"parameterbanks" : 			{

			}

		}
,
		"dependency_cache" : [ 			{
				"name" : "cv.jit.faces.draw.maxpat",
				"bootpath" : "~/Documents/Max 8/Packages/cv.jit/patchers",
				"patcherrelativepath" : "../../../../../Documents/Max 8/Packages/cv.jit/patchers",
				"type" : "JSON",
				"implicit" : 1
			}
, 			{
				"name" : "maxuino.maxpat",
				"bootpath" : "~/Documents/Max 8/Packages/maxuino-master",
				"patcherrelativepath" : "../../../../../Documents/Max 8/Packages/maxuino-master",
				"type" : "JSON",
				"implicit" : 1
			}
, 			{
				"name" : "maxuino.js",
				"bootpath" : "~/Documents/Max 8/Packages/maxuino-master/support",
				"patcherrelativepath" : "../../../../../Documents/Max 8/Packages/maxuino-master/support",
				"type" : "TEXT",
				"implicit" : 1
			}
, 			{
				"name" : "maxuino-gui.maxpat",
				"bootpath" : "~/Documents/Max 8/Packages/maxuino-master/support",
				"patcherrelativepath" : "../../../../../Documents/Max 8/Packages/maxuino-master/support",
				"type" : "JSON",
				"implicit" : 1
			}
, 			{
				"name" : "dpin.maxpat",
				"bootpath" : "~/Documents/Max 8/Packages/maxuino-master/support",
				"patcherrelativepath" : "../../../../../Documents/Max 8/Packages/maxuino-master/support",
				"type" : "JSON",
				"implicit" : 1
			}
, 			{
				"name" : "Teensy++.png",
				"bootpath" : "~/Documents/Max 8/Packages/maxuino-master/hardware",
				"patcherrelativepath" : "../../../../../Documents/Max 8/Packages/maxuino-master/hardware",
				"type" : "PNG",
				"implicit" : 1
			}
, 			{
				"name" : "maxuino-hardware.txt",
				"bootpath" : "~/Documents/Max 8/Packages/maxuino-master/hardware",
				"patcherrelativepath" : "../../../../../Documents/Max 8/Packages/maxuino-master/hardware",
				"type" : "TEXT",
				"implicit" : 1
			}
, 			{
				"name" : "maxuino-debug.maxpat",
				"bootpath" : "~/Documents/Max 8/Packages/maxuino-master/support",
				"patcherrelativepath" : "../../../../../Documents/Max 8/Packages/maxuino-master/support",
				"type" : "JSON",
				"implicit" : 1
			}
, 			{
				"name" : "cv.jit.faces.mxo",
				"type" : "iLaX"
			}
 ],
		"autosave" : 0,
		"styles" : [ 			{
				"name" : "newobjGreen-1",
				"default" : 				{
					"accentcolor" : [ 0.0, 0.533333, 0.168627, 1.0 ]
				}
,
				"parentstyle" : "",
				"multi" : 0
			}
, 			{
				"name" : "newobjYellow-1",
				"default" : 				{
					"fontsize" : [ 12.059008 ],
					"accentcolor" : [ 0.82517, 0.78181, 0.059545, 1.0 ]
				}
,
				"parentstyle" : "",
				"multi" : 0
			}
, 			{
				"name" : "numberGold-1",
				"default" : 				{
					"accentcolor" : [ 0.764706, 0.592157, 0.101961, 1.0 ]
				}
,
				"parentstyle" : "",
				"multi" : 0
			}
 ]
	}

}
